<svg xmlns="http://www.w3.org/2000/svg" viewBox="0 0 32 32" id="brain-development"><g><path fill="#f45151" d="m16,3.539978v24.9199829c-.5900269.3500366-1.2700195.5400391-2,.5400391-1.8599854,0-3.4299927-1.2700195-3.8699951-3h-.1300049c-2.210022,0-4-1.7900391-4-4,0-.7399902.2000122-1.4400024.5599976-2.0400391-1.4500122-.1999512-2.5599976-1.4499512-2.5599976-2.9599609,0-1.3900146.9400024-2.5499878,2.2199707-2.8900146-.1399536-.3400269-.2199707-.7199707-.2199707-1.1099854,0-1.0599976.5499878-1.9899902,1.3800049-2.5300293-.2399902-.4299927-.3800049-.9299927-.3800049-1.4699707,0-1.6600342,1.3400269-3,3-3h.1300049c.4400024-1.7300415,2.0100098-3,3.8699951-3,.7299805,0,1.4099731.2000122,2,.539978Z"></path><path fill="#43b3ff" fill-rule="evenodd" d="m27.8599854,17.8800049l-2.0999756.6199951c-.2700195,1.1799927-.7399902,2.3099976-1.3800049,3.3499756l1.0499878,1.9100342c-.75,1.0199585-1.6499634,1.9199829-2.6699829,2.6699829l-1.9100342-1.0499878c-1.039978.6399536-2.1699829,1.1099854-3.3499756,1.3800049l-.6099854,2.0999756c-.2999878.0499878-.5900269.0800171-.8900146.0999756v-8.75c1.9099731-.4499512,3.3300171-2.1599731,3.3300171-4.2099609s-1.4200439-3.7600098-3.3300171-4.210022V3.039978c.2999878.0200195.5900269.0499878.8900146.1000366l.6099854,2.0999756c1.1799927.2700195,2.3099976.7399902,3.3499756,1.3800049l1.9100342-1.0499878c1.0200195.75,1.9199829,1.6499634,2.6699829,2.6699829l-1.0499878,1.9099731c.6400146,1.0400391,1.1099854,2.1700439,1.3800049,3.3500366l2.0999756.6099854c.1900024,1.2600098.1900024,2.5200195,0,3.7700195Z"></path></g><g><g><path d="m9.769165,26.4766846c.6146851,1.7542114,2.2693481,3.0233154,4.230835,3.0233154.5144653,0,1.0201416-.0965576,1.5-.2661743v.7661743c0,.2763672.2236328.5.5.5s.5-.2236328.5-.5v-.5935059c.1564331-.0172729.3128052-.0264893.4716797-.0529785.1894531-.03125.3447266-.1689453.3984375-.3535156l.5292969-1.8222656c1.0263672-.2636719,2.0195312-.6738281,2.9609375-1.2216797l1.6582031.9121094c.1708984.0917969.3798828.078125.5371094-.0351562,1.0625-.78125,1.9960938-1.7148438,2.7773438-2.7773438.1152344-.15625.1289062-.3662109.0351562-.5371094l-.9121094-1.6582031c.5488281-.9414062.9580078-1.9355469,1.2216797-2.9628906l1.8242188-.5380859c.1865234-.0546875.3232422-.2128906.3525391-.4042969.1962891-1.2954102.1962891-2.6142578,0-3.9194336-.0283203-.1933594-.1669922-.3515625-.3544922-.4057617l-1.6201172-.4702148c-.2695312-.0756836-.5439453.0761719-.6201172.3413086s.0761719.5424805.3408203.6191406l1.3085938.3793945c.1240234.9975586.1240234,2.0014648,0,2.9926758l-1.7910156.5283203c-.1728516.0507812-.3056641.1923828-.3457031.3681641-.2548828,1.1142578-.6982422,2.1904297-1.3183594,3.1992188-.0947266.1533203-.0986328.3447266-.0126953.5029297l.8945312,1.6259766c-.6162109.7929688-1.3261719,1.5029297-2.1191406,2.1191406l-1.6259766-.8945312c-.1582031-.0849609-.3486328-.0830078-.5029297.0126953-1.0087891.6201172-2.0849609,1.0634766-3.1992188,1.3183594-.1767578.0400391-.3183594.1738281-.3691406.3476562l-.5195312,1.7890625v-7.8389893c1.9755249-.6428223,3.3300781-2.4578857,3.3300781-4.5701904,0-2.1118774-1.3545532-3.9277954-3.3300781-4.5706787V3.5908203l.5195312,1.7890625c.0507812.1743164.1923828.3071289.3691406.3476562,1.1152344.2548828,2.1914062.6987305,3.1992188,1.3183594.1542969.0947266.3447266.0991211.5029297.012207l1.6259766-.894043c.7919922.6147461,1.5029297,1.3256836,2.1191406,2.1191406l-.8544922,1.5561523c-.1328125.2421875-.0439453.5463867.1982422.6791992.2392578.1298828.5449219.0454102.6787109-.1977539l1.0097656-1.8398438c.09375-.1708984.0800781-.3803711-.0351562-.5371094-.7822266-1.0629883-1.7167969-1.9975586-2.7773438-2.7768555-.1572266-.1162109-.3681641-.1289062-.5371094-.0351562l-1.6582031.9116211c-.9404297-.5478516-1.9335938-.9575195-2.9609375-1.2207031l-.5292969-1.8222656c-.0537109-.184082-.2080078-.3217773-.3974609-.3535156-.1591797-.0267944-.315918-.0360718-.4726562-.0532837v-.593689c0-.2763672-.2236328-.5-.5-.5s-.5.2236328-.5.5v.7705078c-.4834595-.1724243-.989624-.2705078-1.5-.2705078-1.9615479,0-3.6162109,1.269104-4.230835,3.0233154-1.8204956.12146-3.269165,1.6260376-3.269165,3.4766846,0,.4735107.0967407.9243164.2679443,1.3366699-.7885742.6655884-1.2679443,1.6206665-1.2679443,2.6633301,0,.2661743.0424805.5322266.1051025.7939453-1.2367554.5404053-2.1051025,1.772522-2.1051025,3.2060547,0,1.5045776.9694214,2.8188477,2.3389893,3.295105-.2194824.5338745-.3389893,1.1116943-.3389893,1.704895,0,2.4024048,1.8967896,4.3536987,4.269165,4.4766846Zm9.0609131-10.4766846c0,1.5644531-.9316406,2.9345703-2.3300781,3.5234375v-7.046875c1.3984375.5893555,2.3300781,1.9589844,2.3300781,3.5234375Zm-14.3300781,1c0-1.378418,1.1210938-2.5,2.5-2.5.2763672,0,.5-.2236328.5-.5s-.2236328-.5-.5-.5c-.1474609,0-.2879639.0256958-.4306641.0435181-.041687-.1795044-.0693359-.3616943-.0693359-.5435181,0-.6947021.2971802-1.3370361.7935181-1.8084717.6422729.7914429,1.6103516,1.3084717,2.7064819,1.3084717.2763672,0,.5-.2236328.5-.5s-.2236328-.5-.5-.5c-1.3789062,0-2.5-1.121582-2.5-2.5,0-1.2229614.8837891-2.2393799,2.0458984-2.4541016-.0154419.1514893-.0458984.298584-.0458984.4541016,0,.2763672.2236328.5.5.5s.5-.2236328.5-.5c0-1.9296875,1.5703125-3.5,3.5-3.5.5238037,0,1.0259399.1219482,1.5.3493042v24.3059082c-.4659424.2217407-.9775391.3447876-1.5.3447876-1.9296875,0-3.5-1.5703125-3.5-3.5,0-.2763672-.2236328-.5-.5-.5s-.5.2236328-.5.5c0,.1555176.0304565.3026123.0458984.4541016-1.7136841-.2254639-3.0458984-1.6799316-3.0458984-3.4541016,0-1.2460938.6708984-2.4072266,1.75-3.0322266.2392578-.1376953.3212891-.4443359.1826172-.6826172-.1386719-.2392578-.4472656-.3222656-.6826172-.1826172-.5672607.328125-1.0404663.7756958-1.4091187,1.2947998-1.0654907-.2835083-1.8408813-1.2610474-1.8408813-2.3973389Z"></path><path d="M11.5 21c0 .2763672.2236328.5.5.5.8271484 0 1.5.6728516 1.5 1.5 0 .2763672.2236328.5.5.5s.5-.2236328.5-.5c0-1.3789062-1.1210938-2.5-2.5-2.5-.2763672 0-.5.2236328-.5.5zM11 16.5c.2763672 0 .5-.2236328.5-.5 0-.8271484.6728516-1.5 1.5-1.5.2763672 0 .5-.2236328.5-.5s-.2236328-.5-.5-.5c-1.3789062 0-2.5 1.121582-2.5 2.5 0 .2763672.2236328.5.5.5zM12 9.5c.2763672 0 .5-.2236328.5-.5 0-.2758789.2246094-.5.5-.5.2763672 0 .5-.2236328.5-.5s-.2236328-.5-.5-.5c-.8271484 0-1.5.6728516-1.5 1.5 0 .2763672.2236328.5.5.5zM24.9549561 11.4973145c-.2145996.1738281-.2476807.4886475-.0739136.7032471s.4886475.2476807.7032471.0739136.2476807-.4886475.0739136-.7032471-.4886475-.2476807-.7032471-.0739136z"></path></g></g></svg>